<svg width="76" height="46" viewBox="0 0 76 46" fill="none" xmlns="http://www.w3.org/2000/svg">
<path fill-rule="evenodd" clip-rule="evenodd" d="M30.1508 19.385C30.1789 19.3719 30.2096 19.3649 30.2406 19.3648C30.2694 19.3647 30.2979 19.3704 30.3244 19.3814C30.351 19.3924 30.3752 19.4085 30.3955 19.4289C30.4158 19.4492 30.432 19.4734 30.4429 19.5C30.4539 19.5265 30.4596 19.555 30.4596 19.5838C30.4596 19.6792 30.3982 19.7581 30.3135 19.7884C30.2853 19.8016 30.2545 19.8086 30.2234 19.8089C30.1946 19.809 30.166 19.8033 30.1394 19.7923C30.1128 19.7813 30.0886 19.7652 30.0682 19.7448C30.0478 19.7244 30.0316 19.7002 30.0206 19.6736C30.0095 19.647 30.0039 19.6185 30.0038 19.5897C30.0038 19.4943 30.0655 19.4152 30.1508 19.385ZM30.1503 18.1791C30.1786 18.1658 30.2094 18.1588 30.2406 18.1586C30.2694 18.1586 30.2979 18.1642 30.3245 18.1752C30.3511 18.1863 30.3752 18.2024 30.3956 18.2228C30.4159 18.2432 30.432 18.2673 30.443 18.2939C30.454 18.3205 30.4596 18.3491 30.4596 18.3778C30.4596 18.4729 30.3984 18.5518 30.3139 18.5822C30.2856 18.5956 30.2547 18.6027 30.2234 18.6029C30.1946 18.603 30.166 18.5973 30.1394 18.5863C30.1128 18.5753 30.0886 18.5592 30.0682 18.5388C30.0478 18.5185 30.0316 18.4943 30.0206 18.4677C30.0095 18.441 30.0039 18.4125 30.0038 18.3837C30.0038 18.2883 30.0654 18.2093 30.1503 18.1791H30.1503ZM30.7336 18.7685C30.7614 18.7555 30.7914 18.747 30.8229 18.747C30.9441 18.747 31.048 18.8452 31.048 18.9663C31.048 19.059 30.9867 19.1374 30.9037 19.1694C30.875 19.1836 30.8434 19.1911 30.8113 19.1915C30.7825 19.1915 30.754 19.1858 30.7274 19.1748C30.7008 19.1638 30.6767 19.1476 30.6563 19.1272C30.636 19.1069 30.6199 19.0827 30.6089 19.0561C30.5979 19.0295 30.5922 19.001 30.5922 18.9722C30.5922 18.8785 30.6511 18.8001 30.7336 18.7685ZM31.35 19.385C31.3782 19.3719 31.409 19.365 31.4401 19.3648C31.4689 19.3647 31.4974 19.3704 31.5239 19.3814C31.5505 19.3924 31.5746 19.4086 31.595 19.4289C31.6153 19.4492 31.6314 19.4734 31.6424 19.5C31.6534 19.5266 31.659 19.555 31.659 19.5838C31.659 19.6792 31.5977 19.7581 31.513 19.7884C31.4848 19.8017 31.454 19.8087 31.4228 19.8089C31.394 19.809 31.3655 19.8033 31.3389 19.7923C31.3123 19.7813 31.2881 19.7651 31.2677 19.7447C31.2474 19.7244 31.2312 19.7002 31.2202 19.6736C31.2092 19.647 31.2035 19.6185 31.2035 19.5897C31.2036 19.4943 31.2653 19.4152 31.35 19.385ZM31.3498 18.1791C31.3781 18.1658 31.4089 18.1588 31.4401 18.1586C31.4689 18.1586 31.4974 18.1642 31.524 18.1753C31.5506 18.1863 31.5747 18.2025 31.595 18.2228C31.6154 18.2432 31.6315 18.2674 31.6425 18.294C31.6534 18.3206 31.6591 18.3491 31.659 18.3778C31.659 18.4729 31.5979 18.5518 31.5134 18.5822C31.4851 18.5956 31.4542 18.6027 31.4228 18.6029C31.394 18.6029 31.3655 18.5973 31.3389 18.5863C31.3123 18.5753 31.2881 18.5591 31.2678 18.5388C31.2474 18.5184 31.2312 18.4942 31.2202 18.4676C31.2092 18.441 31.2035 18.4125 31.2035 18.3837C31.2036 18.2883 31.265 18.2093 31.3498 18.1791ZM30.8229 20.5591C31.1286 20.5591 31.4056 20.4263 31.6072 20.2129C31.809 19.9937 31.9304 19.6993 31.9304 19.3704V17.7833L29.7214 17.7777L29.7158 19.3704C29.7158 19.6935 29.8425 19.9937 30.0445 20.2071C30.2462 20.4263 30.5231 20.5591 30.8229 20.5591Z" fill="#C69940"/>
<path fill-rule="evenodd" clip-rule="evenodd" d="M27.1726 23.2138C27.2014 23.2138 27.2299 23.2195 27.2564 23.2305C27.283 23.2416 27.3072 23.2577 27.3275 23.2781C27.3478 23.2984 27.364 23.3226 27.3749 23.3492C27.3859 23.3758 27.3915 23.4043 27.3915 23.4331C27.3921 23.4622 27.3869 23.4912 27.3762 23.5184C27.3654 23.5455 27.3494 23.5702 27.329 23.591C27.3086 23.6119 27.2842 23.6284 27.2573 23.6397C27.2304 23.651 27.2016 23.6569 27.1724 23.6569C27.1432 23.6569 27.1144 23.651 27.0875 23.6397C27.0606 23.6284 27.0362 23.6119 27.0158 23.591C26.9954 23.5702 26.9794 23.5455 26.9686 23.5184C26.9579 23.4912 26.9527 23.4622 26.9533 23.4331C26.9533 23.3117 27.0515 23.2139 27.1726 23.2138ZM27.1726 22.0078C27.2014 22.0078 27.2299 22.0135 27.2564 22.0245C27.283 22.0355 27.3072 22.0517 27.3275 22.072C27.3478 22.0924 27.3639 22.1166 27.3749 22.1432C27.3859 22.1698 27.3915 22.1983 27.3915 22.227C27.3915 22.3481 27.2935 22.4463 27.1726 22.4463C27.1438 22.4463 27.1153 22.4406 27.0887 22.4296C27.0621 22.4186 27.0379 22.4024 27.0175 22.3821C26.9972 22.3617 26.981 22.3376 26.97 22.3109C26.959 22.2843 26.9533 22.2558 26.9534 22.227C26.9534 22.1059 27.0515 22.0078 27.1726 22.0078ZM27.7608 22.5964C27.7896 22.5964 27.8181 22.6021 27.8447 22.6131C27.8712 22.6241 27.8954 22.6402 27.9157 22.6606C27.936 22.6809 27.9522 22.705 27.9632 22.7316C27.9742 22.7582 27.9798 22.7867 27.9798 22.8155C27.9798 22.8442 27.9742 22.8727 27.9632 22.8993C27.9522 22.9259 27.9361 22.9501 27.9158 22.9704C27.8954 22.9908 27.8713 23.0069 27.8447 23.018C27.8181 23.029 27.7896 23.0346 27.7608 23.0346C27.732 23.0347 27.7035 23.029 27.6769 23.0181C27.6502 23.0071 27.626 22.9909 27.6056 22.9706C27.5853 22.9502 27.5691 22.926 27.5581 22.8994C27.5471 22.8728 27.5414 22.8443 27.5414 22.8155C27.5414 22.7867 27.5471 22.7581 27.5581 22.7315C27.5691 22.7049 27.5853 22.6808 27.6057 22.6604C27.6261 22.6401 27.6503 22.6239 27.6769 22.613C27.7035 22.602 27.732 22.5964 27.7608 22.5964ZM28.3721 23.2138C28.4009 23.2138 28.4294 23.2195 28.456 23.2305C28.4825 23.2416 28.5067 23.2577 28.527 23.2781C28.5474 23.2984 28.5635 23.3226 28.5744 23.3492C28.5854 23.3758 28.5911 23.4043 28.591 23.4331C28.591 23.4764 28.5781 23.5188 28.554 23.5549C28.5299 23.5909 28.4957 23.619 28.4556 23.6356C28.4155 23.6522 28.3714 23.6565 28.3289 23.648C28.2864 23.6395 28.2473 23.6186 28.2167 23.5879C28.1861 23.5572 28.1652 23.5181 28.1568 23.4756C28.1484 23.4331 28.1528 23.389 28.1694 23.3489C28.186 23.3089 28.2142 23.2747 28.2503 23.2506C28.2863 23.2266 28.3287 23.2138 28.3721 23.2138ZM28.3721 22.0078C28.4009 22.0078 28.4294 22.0135 28.4559 22.0245C28.4825 22.0355 28.5067 22.0517 28.527 22.072C28.5473 22.0924 28.5634 22.1166 28.5744 22.1432C28.5854 22.1698 28.591 22.1983 28.591 22.227C28.591 22.3481 28.4931 22.4463 28.3721 22.4463C28.314 22.4463 28.2582 22.4232 28.2171 22.3821C28.176 22.3409 28.1529 22.2852 28.1529 22.227C28.1529 22.1689 28.176 22.1131 28.2171 22.072C28.2582 22.0309 28.314 22.0078 28.3721 22.0078ZM27.7722 24.4025C28.0778 24.4025 28.3548 24.2698 28.5564 24.0503C28.7584 23.8369 28.8797 23.5369 28.8797 23.2139V21.6211H26.6705L26.665 23.2079C26.665 23.5369 26.7917 23.8369 26.9937 24.0503C27.1954 24.264 27.4723 24.4025 27.7722 24.4025Z" fill="#C69940"/>
<path fill-rule="evenodd" clip-rule="evenodd" d="M30.2406 23.2075C30.2694 23.2075 30.2979 23.2132 30.3245 23.2243C30.351 23.2353 30.3752 23.2515 30.3955 23.2719C30.4158 23.2922 30.4319 23.3164 30.4429 23.343C30.4539 23.3696 30.4595 23.3981 30.4595 23.4269C30.4596 23.4557 30.4539 23.4842 30.4429 23.5108C30.432 23.5374 30.4158 23.5615 30.3955 23.5819C30.3752 23.6023 30.351 23.6184 30.3245 23.6294C30.2979 23.6405 30.2694 23.6461 30.2406 23.6461C30.183 23.6453 30.1281 23.6218 30.0876 23.5808C30.0472 23.5397 30.0246 23.4844 30.0246 23.4268C30.0246 23.3692 30.0472 23.3139 30.0876 23.2729C30.1281 23.2319 30.183 23.2084 30.2406 23.2075ZM30.2406 21.9956C30.3616 21.9956 30.4595 22.0996 30.4595 22.2151C30.4595 22.3362 30.3616 22.4343 30.2406 22.4343C30.2118 22.4343 30.1833 22.4287 30.1567 22.4177C30.1301 22.4066 30.1059 22.3905 30.0855 22.3701C30.0652 22.3498 30.049 22.3256 30.038 22.299C30.027 22.2724 30.0213 22.2439 30.0213 22.2151C30.0213 22.0996 30.1194 21.9956 30.2406 21.9956ZM30.8287 22.59C30.8575 22.59 30.886 22.5957 30.9126 22.6068C30.9392 22.6178 30.9634 22.634 30.9838 22.6543C31.0041 22.6747 31.0203 22.6989 31.0313 22.7255C31.0423 22.7521 31.048 22.7807 31.0479 22.8095C31.048 22.8383 31.0423 22.8668 31.0313 22.8934C31.0203 22.92 31.0041 22.9442 30.9838 22.9645C30.9634 22.9849 30.9392 23.001 30.9126 23.0121C30.886 23.0231 30.8575 23.0287 30.8287 23.0287C30.7999 23.0287 30.7714 23.0231 30.7448 23.0121C30.7182 23.001 30.694 22.9849 30.6737 22.9645C30.6533 22.9442 30.6372 22.92 30.6262 22.8934C30.6152 22.8668 30.6095 22.8383 30.6096 22.8095C30.6095 22.7807 30.6152 22.7521 30.6262 22.7255C30.6372 22.6989 30.6533 22.6747 30.6737 22.6543C30.694 22.634 30.7182 22.6178 30.7448 22.6068C30.7714 22.5957 30.7999 22.59 30.8287 22.59ZM31.4402 23.2017C31.4983 23.2018 31.5539 23.2249 31.595 23.266C31.636 23.3071 31.6591 23.3629 31.659 23.4209C31.6591 23.4791 31.6361 23.5348 31.595 23.576C31.554 23.6171 31.4983 23.6403 31.4401 23.6404C31.3831 23.6387 31.329 23.6148 31.2892 23.5739C31.2495 23.5329 31.2272 23.4781 31.2272 23.421C31.2272 23.364 31.2495 23.3092 31.2892 23.2682C31.329 23.2273 31.3831 23.2034 31.4401 23.2017H31.4402ZM31.4402 21.9956C31.5611 21.9956 31.659 22.0996 31.659 22.2151C31.659 22.3362 31.5611 22.4344 31.4401 22.4344C31.4113 22.4344 31.3828 22.4287 31.3562 22.4177C31.3296 22.4067 31.3054 22.3905 31.285 22.3702C31.2647 22.3498 31.2485 22.3257 31.2375 22.2991C31.2265 22.2724 31.2208 22.2439 31.2208 22.2151C31.2208 22.0996 31.3189 21.9956 31.4402 21.9956ZM29.733 23.2017C29.733 23.5308 29.8598 23.825 30.0619 24.0444C30.2579 24.2578 30.5404 24.3963 30.8402 24.3963C31.1459 24.3962 31.4228 24.2578 31.6245 24.0444C31.8265 23.831 31.9477 23.5308 31.9477 23.2017V21.6148H29.7387L29.733 23.2017Z" fill="#C69940"/>
<path fill-rule="evenodd" clip-rule="evenodd" d="M24.8713 28.6494L24.4677 29.0532L24.8716 28.6494H24.8713Z" fill="#C69940"/>
<path fill-rule="evenodd" clip-rule="evenodd" d="M25.9787 27.5415L25.575 27.9453L25.9816 27.5444L25.9787 27.5415Z" fill="#C69940"/>
<path fill-rule="evenodd" clip-rule="evenodd" d="M30.2289 27.0107C30.2578 27.0107 30.2863 27.0164 30.3129 27.0274C30.3395 27.0384 30.3637 27.0546 30.3841 27.075C30.4045 27.0954 30.4206 27.1196 30.4316 27.1462C30.4427 27.1728 30.4483 27.2013 30.4483 27.2302C30.4483 27.259 30.4426 27.2875 30.4316 27.3141C30.4206 27.3407 30.4044 27.3649 30.384 27.3852C30.3637 27.4056 30.3395 27.4217 30.3129 27.4327C30.2863 27.4438 30.2577 27.4494 30.2289 27.4494C30.2002 27.4494 30.1717 27.4437 30.1451 27.4327C30.1185 27.4216 30.0944 27.4055 30.0741 27.3851C30.0537 27.3648 30.0376 27.3406 30.0266 27.314C30.0157 27.2874 30.01 27.2589 30.01 27.2302C30.01 27.2014 30.0156 27.1729 30.0266 27.1462C30.0376 27.1196 30.0537 27.0954 30.074 27.0751C30.0943 27.0547 30.1185 27.0385 30.1451 27.0275C30.1717 27.0164 30.2002 27.0107 30.2289 27.0107ZM30.2289 25.8049C30.2577 25.8048 30.2862 25.8105 30.3129 25.8214C30.3395 25.8324 30.3636 25.8485 30.384 25.8689C30.4044 25.8892 30.4205 25.9134 30.4316 25.94C30.4426 25.9666 30.4483 25.9951 30.4483 26.0239C30.4483 26.0527 30.4427 26.0812 30.4316 26.1078C30.4206 26.1345 30.4045 26.1587 30.3841 26.179C30.3637 26.1994 30.3395 26.2156 30.3129 26.2266C30.2863 26.2376 30.2578 26.2433 30.2289 26.2433C30.2002 26.2433 30.1717 26.2376 30.1451 26.2266C30.1185 26.2155 30.0943 26.1993 30.074 26.179C30.0537 26.1586 30.0376 26.1344 30.0266 26.1078C30.0156 26.0812 30.01 26.0526 30.01 26.0239C30.01 25.9951 30.0157 25.9666 30.0266 25.94C30.0376 25.9135 30.0538 25.8893 30.0741 25.869C30.0944 25.8486 30.1186 25.8325 30.1451 25.8215C30.1717 25.8105 30.2002 25.8048 30.2289 25.8049ZM30.8171 26.3932C30.8743 26.3947 30.9287 26.4185 30.9686 26.4594C31.0085 26.5004 31.0308 26.5554 31.0308 26.6126C31.0308 26.6698 31.0085 26.7247 30.9686 26.7657C30.9287 26.8066 30.8743 26.8304 30.8171 26.8319C30.7599 26.8304 30.7056 26.8066 30.6657 26.7657C30.6258 26.7247 30.6034 26.6698 30.6034 26.6126C30.6034 26.5554 30.6258 26.5004 30.6657 26.4594C30.7056 26.4185 30.7599 26.3947 30.8171 26.3932ZM31.4284 27.0107C31.4572 27.0107 31.4858 27.0164 31.5124 27.0274C31.539 27.0384 31.5632 27.0546 31.5836 27.075C31.604 27.0953 31.6201 27.1195 31.6311 27.1462C31.6422 27.1728 31.6478 27.2013 31.6478 27.2302C31.6478 27.259 31.6421 27.2875 31.6311 27.3141C31.6201 27.3407 31.6039 27.3649 31.5835 27.3852C31.5632 27.4056 31.539 27.4217 31.5124 27.4328C31.4857 27.4438 31.4572 27.4494 31.4284 27.4494C31.3996 27.4494 31.3711 27.4437 31.3446 27.4327C31.318 27.4217 31.2938 27.4055 31.2735 27.3852C31.2532 27.3648 31.2371 27.3406 31.2261 27.314C31.2151 27.2874 31.2095 27.2589 31.2095 27.2302C31.2095 27.2014 31.2151 27.1729 31.226 27.1462C31.237 27.1196 31.2531 27.0954 31.2735 27.0751C31.2938 27.0547 31.3179 27.0385 31.3445 27.0275C31.3711 27.0164 31.3996 27.0107 31.4284 27.0107ZM31.4284 25.8049C31.4575 25.8044 31.4863 25.8098 31.5133 25.8206C31.5403 25.8314 31.5648 25.8475 31.5855 25.8679C31.6062 25.8883 31.6227 25.9126 31.6339 25.9394C31.6451 25.9662 31.6509 25.995 31.6509 26.0241C31.6509 26.0531 31.6451 26.0819 31.6339 26.1087C31.6227 26.1355 31.6062 26.1599 31.5855 26.1803C31.5648 26.2007 31.5403 26.2167 31.5133 26.2276C31.4863 26.2384 31.4575 26.2437 31.4284 26.2433C31.3996 26.2433 31.3711 26.2376 31.3445 26.2266C31.3179 26.2155 31.2938 26.1993 31.2735 26.179C31.2531 26.1586 31.237 26.1344 31.226 26.1078C31.2151 26.0812 31.2095 26.0526 31.2095 26.0239C31.2095 25.9951 31.2151 25.9666 31.2261 25.94C31.2371 25.9135 31.2532 25.8893 31.2735 25.869C31.2939 25.8486 31.318 25.8325 31.3446 25.8215C31.3712 25.8105 31.3996 25.8048 31.4284 25.8049ZM29.7214 27.005V27.0107C29.7214 27.334 29.8485 27.634 30.0502 27.8476C30.2519 28.0668 30.5287 28.1995 30.8287 28.1995C31.1345 28.1995 31.4111 28.0668 31.6132 27.8476C31.815 27.6339 31.936 27.334 31.936 27.0107V25.4182H29.7274L29.7214 27.005Z" fill="#C69940"/>
<path fill-rule="evenodd" clip-rule="evenodd" d="M35.056 28.0034L35.0503 27.9976V28.0034H35.056Z" fill="#C69940"/>
<path fill-rule="evenodd" clip-rule="evenodd" d="M35.0503 27.9971H35.0501L35.0503 27.9976V27.9971Z" fill="#C69940"/>
<path fill-rule="evenodd" clip-rule="evenodd" d="M26.5612 27.9917V27.9858L26.5554 27.9917H26.5612Z" fill="#C69940"/>
<path fill-rule="evenodd" clip-rule="evenodd" d="M33.3027 23.2139C33.3315 23.2138 33.3601 23.2195 33.3867 23.2305C33.4133 23.2415 33.4375 23.2576 33.4579 23.278C33.4782 23.2984 33.4944 23.3225 33.5054 23.3492C33.5164 23.3758 33.5221 23.4043 33.5221 23.4331C33.5221 23.5543 33.4239 23.6523 33.3027 23.6523C33.2739 23.6523 33.2454 23.6467 33.2188 23.6357C33.1922 23.6246 33.1681 23.6085 33.1477 23.5881C33.1274 23.5678 33.1112 23.5436 33.1002 23.517C33.0892 23.4904 33.0836 23.4619 33.0836 23.4331C33.0836 23.3117 33.1817 23.2139 33.3027 23.2139ZM33.3027 22.0019C33.4239 22.0019 33.5221 22.1059 33.5221 22.2211C33.5221 22.3424 33.4239 22.4462 33.3027 22.4462C33.1817 22.4462 33.0836 22.3424 33.0836 22.221C33.0836 22.1059 33.1817 22.0019 33.3027 22.0019ZM33.8854 22.5964C33.9141 22.5964 33.9426 22.6021 33.9692 22.6131C33.9958 22.6241 34.0199 22.6403 34.0402 22.6606C34.0605 22.6809 34.0767 22.7051 34.0877 22.7317C34.0987 22.7582 34.1043 22.7867 34.1043 22.8155C34.1043 22.8442 34.0987 22.8727 34.0877 22.8993C34.0767 22.9259 34.0606 22.9501 34.0403 22.9704C34.0199 22.9908 33.9958 23.0069 33.9692 23.0179C33.9426 23.029 33.9142 23.0346 33.8854 23.0346C33.8566 23.0347 33.8281 23.029 33.8014 23.018C33.7748 23.007 33.7506 22.9909 33.7303 22.9705C33.7099 22.9502 33.6937 22.926 33.6827 22.8994C33.6717 22.8728 33.666 22.8443 33.6661 22.8155C33.6661 22.7867 33.6717 22.7582 33.6828 22.7316C33.6938 22.705 33.7099 22.6808 33.7303 22.6605C33.7507 22.6401 33.7749 22.624 33.8015 22.613C33.8281 22.602 33.8566 22.5964 33.8854 22.5964ZM34.4965 23.2079C34.6177 23.2079 34.7216 23.3062 34.7216 23.4273C34.7216 23.5485 34.6176 23.6465 34.4964 23.6465C34.3812 23.6465 34.283 23.5485 34.283 23.4273C34.283 23.3062 34.3812 23.2079 34.4965 23.2079ZM34.5025 22.0019C34.6234 22.0019 34.7216 22.1059 34.7216 22.2211C34.7216 22.3424 34.6234 22.4462 34.5025 22.4462C34.3812 22.4462 34.2831 22.3424 34.2831 22.221C34.2831 22.1059 34.3812 22.0019 34.5025 22.0019ZM33.9027 24.4025C34.2082 24.4025 34.4851 24.2641 34.681 24.0503C34.883 23.8369 35.0098 23.5369 35.0098 23.2079V21.6211H32.7954V23.2079C32.7954 23.5369 32.9165 23.8313 33.1182 24.0503C33.3202 24.2641 33.5967 24.4025 33.9027 24.4025Z" fill="#C69940"/>
<path fill-rule="evenodd" clip-rule="evenodd" d="M24.7502 29.6533H24.7447V29.6476C24.7043 29.6072 24.7043 29.5498 24.7389 29.5151L24.8195 29.4284L24.4677 29.0532L24.4447 29.0764C24.4159 29.1111 24.3697 29.1111 24.3352 29.082H24.3292L24.1218 28.8686L24.2488 28.7417L24.3408 28.8339L24.4331 28.7417L24.3408 28.6492L24.4677 28.5223L24.5599 28.6146L24.6522 28.5223L24.5658 28.43H24.5599L24.6868 28.303V28.3088L24.8944 28.5167H24.9002C24.9234 28.5456 24.9234 28.5973 24.8944 28.6263L24.8716 28.6492L25.2463 29.0013L25.3617 28.8859L25.0389 28.534L24.7157 28.1819L24.6928 28.1646L24.6638 28.1992L24.6581 28.205C24.6292 28.2338 24.5773 28.2397 24.5486 28.205L24.3352 27.9971L24.3408 27.9916L24.4734 27.8586L24.5658 27.9569L24.6522 27.8646L24.5599 27.7723H24.5658L24.6928 27.6395L24.7847 27.7317L24.8771 27.6452L24.7847 27.5529L24.9117 27.426L24.9177 27.4202L25.125 27.6279C25.154 27.6567 25.1483 27.7087 25.1195 27.7433H25.1135V27.749L25.0847 27.7723L25.8114 28.4417L25.9269 28.3261L25.575 27.9452L25.5462 27.9742C25.5174 28.003 25.4711 28.0089 25.4365 27.9742L25.2289 27.7606L25.3559 27.6336L25.4483 27.7259L25.5402 27.6336L25.4483 27.5414L25.575 27.4145L25.6672 27.5067L25.7596 27.4145L25.6672 27.3277L25.7941 27.2008L26.0018 27.4086C26.0306 27.4376 26.0305 27.4895 26.0018 27.5241L25.9816 27.5441L26.3536 27.8933L26.4284 27.8182C26.463 27.7837 26.5266 27.7837 26.5669 27.8243H26.5727V27.83C26.6132 27.8702 26.6132 27.9338 26.5784 27.9685L26.5612 27.9858H26.5727L26.5784 27.9798H26.6305V27.9858H26.642L26.6477 27.9915H26.6533L26.6593 27.9971H26.665V28.0031H26.6706V28.0089H26.6766V28.0144C26.7169 28.055 26.7227 28.1127 26.6938 28.1473L26.665 28.1764L26.9074 28.3665L27.38 28.7475L27.4088 28.7186C27.4434 28.6838 27.5128 28.6898 27.5588 28.7359C27.6048 28.782 27.6108 28.8457 27.5703 28.8859L25.8057 30.6518H25.7999V30.6573H25.7941V30.6632H25.7883L25.7826 30.6691H25.7711V30.6747C25.7308 30.6864 25.6904 30.6691 25.6559 30.64C25.6211 30.6057 25.6096 30.5595 25.6211 30.5249V30.5131H25.6271V30.5018H25.6326V30.4958H25.6384V30.4902L25.6616 30.4672L25.304 30.0112L25.0963 29.7459L25.0675 29.7689C25.0389 29.8036 24.9752 29.7977 24.9349 29.7572C24.8944 29.7168 24.8889 29.6593 24.9234 29.6245L24.8829 29.6593C24.8483 29.694 24.7907 29.694 24.7502 29.6533ZM22.7376 23.017C22.7376 22.9538 22.778 22.9018 22.8298 22.9018H22.8703L22.9394 22.3017L22.9685 21.99H22.9337C22.8876 21.99 22.8471 21.944 22.8471 21.8861V21.8689L22.853 21.863V21.8458H22.8587V21.8342L22.8643 21.8285V21.8229H22.8703V21.8169L22.8761 21.8111L22.8816 21.8056L22.8876 21.7996H22.8934V21.7939H22.8991L22.9049 21.7882H22.9164V21.7821H22.8875C22.8358 21.7821 22.7952 21.7362 22.7952 21.6842V21.6727C22.7952 21.6208 22.8357 21.5747 22.8876 21.5747H22.9973L23.0086 21.0611L23.5852 21.0552H22.9798C22.9394 21.0552 22.8991 21.0207 22.8991 20.9802V20.686H23.0777V20.8128H23.2047V20.686H23.3837V20.8128H23.5162V20.686H23.6949V20.9802C23.6949 21.0265 23.6603 21.0553 23.6198 21.0553L23.5853 21.0552L23.6025 21.5747H23.7641L23.8046 20.5935H23.7585C23.718 20.5935 23.6776 20.5589 23.6776 20.5128V20.2184H23.8622V20.3512H23.9892V20.2184H24.1735V20.3512H24.3006V20.2184H24.4908V20.5128C24.4908 20.5589 24.4562 20.5935 24.4101 20.5935H24.3581V20.6166L24.3755 21.0956L24.3986 21.5746H24.5599L24.5773 21.0611L25.1483 21.0552H24.5486C24.5022 21.0552 24.4677 21.0265 24.4622 20.9802V20.686H24.6407V20.8128H24.7675V20.68L24.9522 20.686V20.8128H25.079V20.68H25.2635V20.9858C25.2608 21.0052 25.2511 21.0229 25.2362 21.0357C25.2214 21.0485 25.2024 21.0554 25.1829 21.0553L25.1483 21.0552L25.1656 21.5747H25.2808C25.3329 21.5747 25.3731 21.6208 25.3731 21.6727V21.6842C25.3731 21.7362 25.3329 21.7821 25.2808 21.7821H25.2289C25.275 21.7821 25.3155 21.8285 25.3155 21.8861C25.3156 21.944 25.275 21.99 25.2289 21.99H25.1942L25.2349 22.3248L25.304 22.9018H25.3501V22.9077H25.3674V22.9134H25.3731C25.4019 22.9307 25.425 22.9711 25.425 23.017C25.425 23.0634 25.402 23.1036 25.3731 23.1211L25.3674 23.1268H25.3559V23.1326H22.8298C22.778 23.1326 22.7376 23.0807 22.7376 23.017ZM22.8298 16.0693H22.8703L22.9394 15.4636L22.9685 15.1576H22.9337C22.8876 15.1576 22.8471 15.1115 22.8471 15.0537V15.0308H22.853V15.0134L22.8587 15.0076V14.9962H22.8643V14.9845H22.8703V14.9789H22.8761V14.973H22.8816V14.9671H22.8876V14.9615H22.8934L22.8991 14.9557H22.9049V14.9499H22.8876C22.8357 14.9499 22.7952 14.9036 22.7952 14.846V14.8402C22.7952 14.7825 22.8357 14.7364 22.8876 14.7364H22.9973L23.0086 14.2227H22.9798C22.9394 14.2227 22.8991 14.1881 22.8991 14.142V13.8478L23.0777 13.8533V13.9805H23.2047V13.8478H23.3837V13.9805H23.5162V13.8478H23.6949V14.1479C23.6949 14.194 23.6603 14.2228 23.6198 14.2228H23.5853L23.6025 14.7364H23.7641L23.8046 13.7554H23.7585C23.718 13.7554 23.6776 13.7208 23.6776 13.6803V13.3862H23.8622V13.5129H23.9892V13.3803H24.1735V13.5129H24.3006V13.3803H24.4908V13.6803C24.4908 13.7265 24.4562 13.7554 24.4101 13.7554H24.3581V13.7785L24.3755 14.2573L24.3986 14.7364H24.5599L24.5773 14.2227H24.5485C24.5275 14.2228 24.5072 14.2153 24.4913 14.2015C24.4754 14.1878 24.465 14.1687 24.4621 14.1479V13.8477H24.6407V13.9805H24.7675V13.8477H24.9522V13.9805H25.079V13.8477H25.2635V14.1479C25.2578 14.194 25.2231 14.2228 25.1829 14.2228L25.1483 14.2227L25.1656 14.7364H25.2808C25.3329 14.7364 25.3731 14.7825 25.3731 14.8402V14.846C25.3731 14.9036 25.3329 14.9499 25.2808 14.9499H25.2289C25.275 14.9499 25.3155 14.9962 25.3155 15.0537C25.3156 15.1114 25.275 15.1576 25.2289 15.1576H25.1942L25.2349 15.4867L25.304 16.0693H25.3617V16.0752H25.3731C25.3893 16.0885 25.4023 16.1053 25.4113 16.1242C25.4202 16.1432 25.4249 16.1639 25.425 16.1848C25.425 16.2311 25.402 16.2713 25.3731 16.2887H25.3674L25.3617 16.2945H25.3444V16.3003H22.8298C22.778 16.3003 22.7375 16.2484 22.7375 16.1848C22.7375 16.1212 22.7779 16.0693 22.8298 16.0693ZM35.8114 16.5542V23.7731L35.8058 24.535C35.8058 24.7369 35.7941 24.9619 35.7713 25.1581C35.6326 26.3006 35.1077 27.293 34.3294 28.0665C33.4239 28.9726 32.1666 29.5379 30.7828 29.5379C29.4101 29.5379 28.1816 28.9551 27.2706 28.0434C26.3363 27.1143 25.7941 25.8332 25.7941 24.5116L25.7883 16.5369L35.8114 16.5542ZM29.5771 16.0693H29.612L29.6813 15.4636L29.7158 15.1576H29.6753C29.6292 15.1576 29.5889 15.1115 29.5889 15.0537V15.0308H29.5946V15.0134L29.6004 15.0076V14.9962H29.6062V14.9845H29.612V14.9789H29.6177V14.973H29.6235V14.9671H29.6292V14.9615H29.635L29.6407 14.9557H29.6465L29.6522 14.9499H29.6292C29.5771 14.9499 29.537 14.9036 29.537 14.846V14.8402C29.537 14.7825 29.5771 14.7364 29.6292 14.7364H29.7387L29.7504 14.2227H29.7214C29.6812 14.2227 29.6407 14.1881 29.6407 14.142V13.8478L29.8195 13.8533V13.9805H29.9465V13.8478H30.131V13.9805H30.258V13.8478H30.4367V14.1479C30.4367 14.194 30.402 14.2228 30.3617 14.2228H30.3271L30.3444 14.7364H30.5059L30.5462 13.7554H30.5001C30.4596 13.7554 30.4194 13.7208 30.4194 13.6803V13.3862H30.6038V13.5129H30.7308V13.3803H30.9153V13.5129H31.0421V13.3803H31.2324V13.6803C31.2324 13.7265 31.1978 13.7554 31.1515 13.7554H31.0999V13.7785L31.1171 14.2573L31.1402 14.7364H31.3017L31.319 14.2227H31.2902C31.2692 14.2227 31.2489 14.2151 31.233 14.2014C31.2171 14.1877 31.2067 14.1687 31.2036 14.1479V13.8477H31.3824V13.9805H31.5093V13.8477H31.6936V13.9805H31.8206V13.8477H32.0052V14.1479C32.0052 14.194 31.965 14.2228 31.9243 14.2228L31.8898 14.2227L31.907 14.7364H32.0224C32.0745 14.7364 32.1148 14.7825 32.1148 14.8402V14.846C32.1148 14.9036 32.0745 14.9499 32.0224 14.9499H31.9706C32.0169 14.9499 32.0572 14.9962 32.0572 15.0537C32.0572 15.1114 32.0169 15.1576 31.9706 15.1576H31.936L31.9764 15.4867L32.0457 16.0693H32.1031V16.0752H32.1148C32.1439 16.0983 32.1724 16.1385 32.1724 16.1848C32.1724 16.2311 32.1494 16.2713 32.1148 16.2887H32.109L32.1031 16.2945H32.086V16.3003H29.5771C29.5198 16.3003 29.4795 16.2484 29.4795 16.1848C29.4795 16.1212 29.5198 16.0693 29.5771 16.0693ZM35.9383 27.5183L36.0306 27.4259L36.1574 27.5529L36.0653 27.6452L36.1574 27.7377L36.2498 27.6452L36.3768 27.7723L36.169 27.9797C36.1344 28.0144 36.0884 28.0089 36.0593 27.9797L36.0365 27.9569L35.6847 28.3319L35.7999 28.4475L36.5208 27.7836L36.4922 27.755V27.749C36.4575 27.7204 36.4515 27.6685 36.486 27.6394L36.6938 27.4317L36.6995 27.4376L36.8208 27.5586L36.7342 27.6511L36.8208 27.7432L36.9127 27.6511H36.919L37.0457 27.7779L36.9535 27.8702L37.0457 27.9625L37.1378 27.8702L37.2648 27.9971L37.2706 28.003L37.0629 28.2166C37.0282 28.2454 36.9821 28.2396 36.9476 28.2107L36.9418 28.2049L36.9127 28.1764L36.8955 28.1935L36.5727 28.5456L36.2439 28.8974L36.3593 29.0128L36.7342 28.6609L37.1378 29.0647L36.7169 28.6378C36.6821 28.609 36.6821 28.5568 36.7111 28.5282L36.7111 28.5223L36.919 28.3146L37.0457 28.4417L36.9535 28.5339L37.0457 28.6205L37.1378 28.534V28.5282L37.2648 28.6609L37.1725 28.7532L37.2647 28.8457L37.3572 28.7532V28.7475L37.4839 28.8803L37.2763 29.0878V29.0938H37.2706C37.2415 29.1224 37.1955 29.1168 37.1668 29.0878L37.1378 29.0647L36.7861 29.4398L36.8727 29.5206C36.9072 29.5553 36.9015 29.6188 36.8669 29.6593H36.8609V29.6649H36.8554C36.8148 29.6995 36.7574 29.7052 36.7228 29.6707L36.6821 29.6302C36.7169 29.6649 36.7111 29.7285 36.6708 29.7689C36.6303 29.8091 36.5727 29.8151 36.5381 29.7805L36.5151 29.7572L36.3075 30.017L35.9439 30.4785L35.9674 30.4958V30.5018H35.9729V30.5075H35.9787V30.519H35.9847V30.5304C35.9959 30.571 35.9847 30.6171 35.95 30.646C35.9211 30.6806 35.875 30.6919 35.8404 30.6806H35.8287L35.8232 30.6747H35.8172V30.669H35.8115L35.8058 30.6632L34.0352 28.8917C34.0007 28.857 34.0062 28.7878 34.047 28.7417C34.0928 28.7013 34.1622 28.6898 34.1967 28.7301L34.2256 28.7532L34.6985 28.378L34.9407 28.1819L34.9177 28.1588C34.8831 28.1242 34.8889 28.0608 34.9291 28.0204H34.935V28.0144H34.9407V28.0089H34.9465V28.003H34.9578V27.9971H34.9695L34.9751 27.9915H34.9924L34.9985 27.9858H35.0159L35.0214 27.9915H35.0386V27.9971H35.0501L35.0272 27.9742C34.9924 27.9396 34.9985 27.8819 35.0331 27.8415V27.8356H35.0386C35.079 27.7954 35.1425 27.7897 35.1771 27.8243L35.252 27.9048L35.6269 27.5529L36.0365 27.9569L35.6096 27.5298C35.5808 27.501 35.575 27.4491 35.6038 27.4145L35.8115 27.2066L35.9384 27.3337L35.8459 27.4259L35.9384 27.5183H35.9383ZM36.2326 22.9018H36.2672L36.3363 22.3017L36.3709 21.99H36.3363C36.2844 21.99 36.2498 21.944 36.2498 21.8861V21.8515H36.2554V21.8401L36.2611 21.8342V21.8284L36.2672 21.8229V21.8169H36.2727V21.8111H36.2787V21.8056H36.2844V21.7996H36.2902L36.296 21.7939H36.3017L36.3075 21.7882H36.319V21.7821H36.2844C36.2381 21.7821 36.1922 21.7362 36.1922 21.6842V21.6727C36.1922 21.6208 36.2381 21.5746 36.2844 21.5746H36.3941L36.4114 21.0611H36.3824C36.3363 21.0611 36.2959 21.0264 36.2959 20.9802V20.686H36.4748V20.8186H36.6075V20.686H36.7861V20.8186H36.9127V20.686H37.0976V20.9802C37.0976 21.0265 37.0572 21.0611 37.0168 21.0611H36.9821L36.9994 21.5746H37.1668L37.207 20.5935H37.1611C37.1148 20.5935 37.0745 20.5589 37.0745 20.5128L37.0745 20.2184H37.259V20.3512H37.3858V20.2184H37.5764V20.3512H37.703V20.2184H37.8934V20.5128C37.8934 20.5589 37.853 20.5935 37.8125 20.5935H37.7551L37.7608 20.6166L37.7782 21.0956L37.7954 21.5746H37.9569L37.9743 21.0611H37.9452C37.905 21.0611 37.8643 21.0264 37.8643 20.9858V20.686H38.0376V20.8128H38.1703V20.686H38.3491V20.8128H38.4816V20.686H38.6605V20.9858C38.6605 21.032 38.6258 21.0611 38.5797 21.0611H38.5452L38.5624 21.5746H38.6834C38.7297 21.5746 38.77 21.6208 38.77 21.6727V21.6842C38.77 21.7362 38.7297 21.7821 38.6834 21.7821L38.6258 21.7821C38.6779 21.7821 38.7124 21.8285 38.7124 21.8861C38.7124 21.944 38.6778 21.99 38.6258 21.99H38.5913L38.6316 22.3248L38.7009 22.9018H38.7411L38.747 22.9077H38.7641V22.9134H38.77C38.8046 22.9307 38.8276 22.971 38.8276 23.017C38.8276 23.0634 38.8046 23.1035 38.77 23.1268H38.7585V23.1326H36.2326C36.1808 23.1326 36.1344 23.0807 36.1344 23.017C36.1344 22.9538 36.1808 22.9018 36.2326 22.9018V22.9018ZM36.2439 16.0693H36.2787L36.3478 15.4636L36.3824 15.1576H36.342C36.2959 15.1576 36.2554 15.1115 36.2554 15.0537L36.2554 15.0481V15.0363H36.2611V15.0134H36.2672V15.0018L36.2727 14.9962V14.9903L36.2787 14.9845V14.9789H36.2844V14.973H36.2902V14.9671H36.2959V14.9615H36.3075V14.9557H36.3133L36.319 14.9499H36.2959C36.2439 14.9499 36.2035 14.9036 36.2035 14.846L36.2036 14.8402C36.2036 14.7825 36.2439 14.7364 36.2959 14.7364H36.4056L36.4229 14.2227H36.3881C36.3478 14.2227 36.3075 14.1881 36.3075 14.142V13.8478L36.486 13.8533V13.9805H36.613V13.8478H36.7976V13.9805H36.9245V13.8478H37.109V14.1479C37.109 14.194 37.0687 14.2228 37.0282 14.2228H36.9936L37.0109 14.7364H37.1725L37.2127 13.7554H37.1725C37.1264 13.7554 37.086 13.7208 37.086 13.6803V13.3862H37.2706V13.5129H37.3975V13.3803H37.5819V13.5129H37.709V13.3803H37.8991V13.6803C37.8991 13.7265 37.8644 13.7554 37.8184 13.7554H37.7664V13.7785L37.7896 14.2573L37.8069 14.7364H37.9685L37.9857 14.2227H37.9569C37.9359 14.2228 37.9156 14.2152 37.8997 14.2015C37.8838 14.1877 37.8734 14.1687 37.8705 14.1479L37.8705 14.142V13.8477H38.0491V13.9805H38.1818V13.8477H38.3606V13.9805H38.4875V13.8477H38.6718V14.1479C38.6718 14.194 38.6316 14.2228 38.5913 14.2228L38.5567 14.2227L38.5739 14.7364H38.6892C38.7411 14.7364 38.7813 14.7825 38.7813 14.8402V14.846C38.7813 14.9036 38.7411 14.9499 38.6892 14.9499H38.6373C38.6834 14.9499 38.7237 14.9962 38.7237 15.0537C38.7237 15.1114 38.6834 15.1576 38.6373 15.1576H38.6027L38.6433 15.4867L38.7124 16.0693H38.77V16.0752H38.7813C38.7993 16.0873 38.8139 16.1036 38.824 16.1228C38.8341 16.1419 38.8393 16.1632 38.8392 16.1848C38.8392 16.2311 38.8161 16.2713 38.7813 16.2887H38.7758L38.77 16.2945H38.7585L38.7528 16.3003H36.2439C36.1923 16.3003 36.1459 16.2484 36.1459 16.1848C36.1459 16.1212 36.1922 16.0693 36.2439 16.0693ZM30.7884 32.8675C33.1009 32.8675 35.2001 31.9271 36.7228 30.4092C38.2452 28.8974 39.1853 26.8085 39.1853 24.5004V13.1668L22.3976 13.161L22.3858 24.4887V24.4944C22.3858 26.7912 23.3374 28.8803 24.8599 30.398C26.3882 31.9213 28.4873 32.8675 30.7884 32.8675Z" fill="#C69940"/>
<path fill-rule="evenodd" clip-rule="evenodd" d="M26.5438 28.0034L26.5497 27.9971H26.5438V28.0034Z" fill="#C69940"/>
<path fill-rule="evenodd" clip-rule="evenodd" d="M21.762 20.2835C20.627 19.4757 18.8997 18.6633 18.1474 18.0184C17.832 19.0166 17.5881 20.0848 17.4155 21.22C18.4033 20.8617 20.387 20.5872 21.762 20.2835Z" fill="#C69940"/>
<path fill-rule="evenodd" clip-rule="evenodd" d="M39.5718 24.4834C39.5718 26.8897 38.5854 29.0768 36.9938 30.6636C35.4079 32.2448 33.2166 33.2258 30.8003 33.2258C28.3952 33.2258 26.2269 32.2216 24.6352 30.6348C23.0434 29.0478 22.0572 26.8723 22.0572 24.4717L22.0573 12.7749L39.5718 12.7922V24.4835L39.5718 24.4834ZM36.3369 11.1571C34.8766 10.4702 33.2732 10.0476 31.5901 9.94864V12.0766H30.0331V9.95059C29.3613 9.99145 28.6937 10.0847 28.0364 10.2295C26.8759 10.5022 25.7541 10.9191 24.6971 11.4704C24.354 11.6547 24.0191 11.852 23.6952 12.065H21.348V21.9038L21.2384 21.9211C20.1236 22.1436 18.8093 22.4818 17.7753 22.8731C17.775 22.9117 17.7725 22.95 17.7725 22.9887C17.7725 23.0114 17.774 23.0338 17.7741 23.0565C18.9544 23.4279 20.3582 23.7199 21.348 23.9006V24.4717C21.348 24.7024 21.3606 24.9334 21.3768 25.1642H21.3771C21.3826 25.2797 21.3943 25.3951 21.4056 25.516C19.9703 25.2705 18.7865 24.9682 17.8897 24.6913C18.1108 26.214 18.5715 27.5744 19.1919 28.7956C19.6566 28.6134 20.1768 28.4419 20.679 28.2976C21.1174 28.1648 21.5671 28.0494 22.0227 27.9456C22.0441 28.0005 22.0677 28.0558 22.0902 28.1107C22.2531 28.4958 22.4426 28.8752 22.6593 29.2387C22.6969 29.3007 22.7335 29.3626 22.7727 29.4229C22.2122 29.5416 21.6562 29.6802 21.1056 29.8384C20.7865 29.9279 20.3958 30.0571 20.014 30.2079C20.0512 30.2645 20.0879 30.3218 20.1257 30.3779C21.4447 30.6739 22.78 30.9323 24.1394 31.1426C24.2014 31.2024 24.2637 31.2618 24.3264 31.3209L24.3294 31.3215C24.8931 31.8541 25.5178 32.3182 26.1904 32.7041C26.2784 32.7549 26.3673 32.8042 26.4571 32.8518C26.5029 32.8761 26.5492 32.8996 26.5955 32.9235C26.7124 32.9825 26.8299 33.0401 26.9478 33.0931C24.9094 32.8889 23.0967 32.5646 21.5991 32.1987C22.1916 32.7932 22.8393 33.33 23.5334 33.802C24.6294 34.5038 26.0491 35.214 27.6187 35.6487C28.3987 35.8485 29.2062 35.9756 30.0331 36.0263V33.9009C30.2882 33.9241 30.5442 33.9356 30.8003 33.9355C31.0655 33.9355 31.3308 33.924 31.5959 33.9009L31.596 36.0265C34.5107 35.7988 37.0768 34.6954 39.1584 33.0174C39.4463 32.7771 39.7238 32.5247 39.9903 32.2609C39.272 32.4348 38.6231 32.5714 38.2166 32.6372C37.2304 32.8391 35.9675 33.0122 34.6122 33.1391C34.7447 33.0784 34.8761 33.0154 35.0065 32.9503C35.0732 32.9174 35.1384 32.8821 35.2042 32.8475C35.2487 32.8242 35.2933 32.8009 35.3376 32.777C38.2018 31.2058 39.5312 29.3554 40.1195 26.1914C40.1197 26.1916 40.1199 26.1918 40.1203 26.192C40.1334 26.117 40.1468 26.0426 40.16 25.9665C41.2332 26.7699 42.1216 27.4992 42.7748 28.1187C43.1929 27.1422 43.5338 26.0638 43.7344 24.9229C43.7432 24.8648 43.7491 24.8059 43.757 24.7476C42.8185 25.0199 41.5929 25.2966 40.2176 25.5335C40.2238 25.4717 40.2301 25.4136 40.2362 25.3543C40.236 25.3545 40.2355 25.3545 40.2351 25.3545C40.2639 25.0661 40.2752 24.7719 40.2752 24.4834V23.9407C41.4605 23.7398 42.8167 23.4207 43.8771 23.0915C43.8774 23.0571 43.8798 23.0231 43.8798 22.9887C43.8798 22.966 43.8782 22.944 43.8782 22.9213C42.7971 22.492 41.4422 22.1547 40.2752 21.9211V20.3284C41.6558 20.6047 42.8292 20.9162 43.7383 21.2556C43.5797 20.2805 43.3776 19.4038 43.1145 18.5974C42.9432 18.1214 42.7425 17.6592 42.5191 17.2102C41.9096 17.3834 41.1517 17.5728 40.2752 17.7547V16.162C40.8233 16.0432 41.2966 15.916 41.6991 15.7917C41.6698 15.7473 41.6391 15.7038 41.609 15.6598C41.1974 15.5522 40.7511 15.4461 40.2752 15.3425V12.0879H39.9988C39.9984 12.0878 39.9981 12.0876 39.9979 12.0873L37.9859 12.0824C37.4577 11.7371 36.9068 11.428 36.3369 11.1571Z" fill="#C69940"/>
<path fill-rule="evenodd" clip-rule="evenodd" d="M30.0328 37.8476V37.5893C26.3683 37.3937 23.0564 35.8357 20.5927 33.416C19.9434 32.7825 19.3541 32.0904 18.8325 31.3483C18.7166 31.3027 18.6015 31.2552 18.4872 31.2057L18.3143 30.9058L18.3161 30.9029L18.3143 30.8997C18.3207 30.8592 18.3467 30.8118 18.388 30.7601L18.011 30.1493C17.9563 30.1323 17.9017 30.1151 17.8472 30.0977L17.6742 29.7917C17.6796 29.7274 17.7154 29.6603 17.7729 29.5915C16.8955 27.8755 16.3709 26.0009 16.2303 24.0787C16.1459 24.0385 16.0773 24.0033 16.0306 23.9752V23.5654C16.0313 23.5658 16.0322 23.5662 16.0329 23.5667C16.0536 23.5088 16.0978 23.4474 16.1574 23.3839V22.7902C16.1071 22.765 16.0627 22.742 16.0307 22.723L16.0307 22.7168L16.0307 22.717V22.3189C16.0569 22.2426 16.1231 22.1595 16.2195 22.0726C16.317 20.5362 16.6598 19.0252 17.2348 17.5971C17.1775 17.4857 17.1465 17.3856 17.1443 17.2982C17.1417 17.229 17.1564 17.1673 17.1897 17.114C17.3268 16.8759 17.2962 16.7996 17.5567 16.7653L17.6784 16.5301C17.7064 16.4701 17.7358 16.4108 17.7665 16.3522C17.7677 16.3526 17.7688 16.353 17.7699 16.3535L18.2616 15.4031C18.2107 15.2773 18.1989 15.1677 18.2335 15.0768L18.2566 15.0249L18.4296 14.7249H18.4309L18.4469 14.6959C18.5479 14.6202 18.6984 14.581 18.8925 14.5742C19.2309 14.1001 19.5936 13.6447 19.985 13.2149C22.4974 10.4358 26.0585 8.6226 30.0328 8.41054V0.465668H0.499939V45.534H30.0328V37.8476Z" fill="#C69940"/>
<path fill-rule="evenodd" clip-rule="evenodd" d="M31.5957 0.465807V8.41029C36.2224 8.6555 40.2888 11.0754 42.7929 14.6624C42.9699 14.7496 43.1196 14.8363 43.2336 14.9212L43.5797 15.4694C43.5712 15.4602 43.5603 15.451 43.551 15.4416L43.5681 15.4694C43.5367 15.4955 43.4922 15.5245 43.4368 15.5557L43.7115 16.0331C43.8167 16.0881 43.8954 16.1394 43.9372 16.1849L44.1737 16.6004C44.1715 16.5989 44.1687 16.5974 44.1664 16.596C44.1492 16.6224 44.0882 16.6603 43.9901 16.7073C44.7863 18.3668 45.2766 20.1987 45.391 22.1295C45.4686 22.1961 45.5399 22.2628 45.598 22.3307V22.7114C45.5972 22.7103 45.5962 22.7095 45.5952 22.7084C45.5945 22.7093 45.593 22.7103 45.5923 22.7111V22.7114C45.5531 22.7563 45.4918 22.8036 45.4155 22.8529C45.4161 22.9021 45.4192 22.9506 45.4192 23V23.0058C45.4192 23.0441 45.4165 23.0815 45.4163 23.1199L45.4303 23.4197C45.4899 23.4737 45.5453 23.5281 45.5923 23.5828V23.9636C45.5914 23.9625 45.5901 23.9617 45.5893 23.9607C45.5436 24.0149 45.4704 24.0723 45.3709 24.1325C45.224 26.0339 44.7125 27.835 43.9034 29.4651C44.0014 29.6672 44.0277 29.8332 43.9661 29.9534L43.7908 30.2256C43.7746 30.2544 43.7581 30.2831 43.7411 30.3115C43.7016 30.344 43.6159 30.3519 43.4931 30.3389L42.7019 31.5494L42.6479 31.6451C42.6925 31.7623 42.6972 31.8583 42.6511 31.9271L42.4666 32.2156L42.4534 32.2259C42.3809 32.3266 42.2559 32.3387 42.0476 32.3194C39.5205 35.3619 35.7873 37.3677 31.5957 37.5898L31.5957 37.8477V45.5341H75.5V0.465759L31.5957 0.465807Z" fill="#C69940"/>
<path fill-rule="evenodd" clip-rule="evenodd" d="M26.5497 27.9971L26.5554 27.9917H26.5497V27.9971Z" fill="#C69940"/>
<path fill-rule="evenodd" clip-rule="evenodd" d="M18.802 15.3586L21.4717 14.9369L21.4716 17.4009L18.802 15.3586Z" fill="#C69940"/>
<path fill-rule="evenodd" clip-rule="evenodd" d="M40.9932 30.6797L39.0859 28.7617L37.6343 30.751L40.9932 30.6797Z" fill="#C69940"/>
</svg>
