<svg width="167" height="47" viewBox="0 0 167 47" fill="none" xmlns="http://www.w3.org/2000/svg">
<path d="M2.88357 2.5795V35.478L0.28241 33.2129V0.314453L2.88357 2.5795Z" fill="#C69940"/>
<path d="M9.04167 7.94169V44.0007L6.42841 41.7251V5.66611L9.04167 7.94169Z" fill="#C69940"/>
<path d="M27.5069 0.303741V33.0284L24.8936 35.3013V2.57932L27.5069 0.303741Z" fill="#C69940"/>
<path d="M21.3458 5.66611V41.5723L18.7477 43.8348V7.93115L21.3458 5.66611Z" fill="#C69940"/>
<path d="M15.1937 12.1636H12.5865V46.9452H15.1937V12.1636Z" fill="#C69940"/>
<path d="M57.0059 16.2513V27.3789H53.8845V19.5435L50.0342 27.3789H48.1166L43.2984 19.288V27.3789H41.5834V16.2513H44.7411L49.6864 24.6135L53.8301 16.2513H57.0059Z" fill="#BBBDBF"/>
<path d="M68.7807 24.5661H62.2839L60.7141 27.379H58.5606L65.2056 16.0932H67.1958L73.4568 27.379H70.2991L68.7838 24.5661H68.7807ZM68.2514 23.5811L65.5868 18.6059L62.8313 23.5811H68.2514Z" fill="#BBBDBF"/>
<path d="M75.0054 16.2513H86.8134V17.2363H78.1056V20.9236H85.8093V21.9086H78.1056V26.3913H86.8134V27.3763H75.0054V16.2486V16.2513Z" fill="#BBBDBF"/>
<path d="M90.1647 26.5522C88.9911 25.8964 88.3741 24.9719 88.3106 23.7867H90.7757C90.8362 24.7612 91.2052 25.4671 91.8796 25.9016C92.5572 26.3362 93.5492 26.5522 94.8649 26.5522C95.9477 26.5522 96.7462 26.3889 97.2574 26.0597C97.7686 25.7305 98.0226 25.2432 98.0226 24.5979C98.0226 24.2476 97.9319 23.9474 97.7474 23.6919C97.5659 23.4364 97.209 23.2047 96.6797 22.9913C96.1504 22.7806 95.3731 22.5884 94.3508 22.4198C92.7447 22.1433 91.3927 21.7535 90.2887 21.2425C89.1877 20.7342 88.6373 19.9862 88.6373 19.0012C88.6373 17.0732 90.6517 16.1093 94.6804 16.1093C96.6525 16.1093 98.1376 16.3911 99.1448 16.96C100.149 17.5263 100.699 18.2821 100.796 19.225H98.3705C98.1981 18.4533 97.7958 17.9055 97.1636 17.5789C96.5315 17.2576 95.6665 17.0943 94.5715 17.0943C93.6097 17.0943 92.8959 17.2365 92.4271 17.5236C91.9583 17.8107 91.7254 18.1742 91.7254 18.6219C91.7254 18.8642 91.8071 19.0828 91.9734 19.2724C92.1367 19.4621 92.4725 19.6517 92.9776 19.8361C93.4827 20.0204 94.2207 20.2101 95.1946 20.4023C96.5708 20.6657 97.6597 20.9317 98.4612 21.1951C99.2627 21.4611 99.91 21.8377 100.397 22.3329C100.884 22.8254 101.126 23.4812 101.126 24.295C101.126 24.9719 100.869 25.5566 100.352 26.0439C99.8344 26.5311 99.1054 26.9025 98.1708 27.158C97.2332 27.4108 96.1443 27.5399 94.9043 27.5399C92.9201 27.5399 91.3413 27.2106 90.1677 26.5548L90.1647 26.5522Z" fill="#BBBDBF"/>
<path d="M107.317 17.2363H102.024V16.2513H115.695V17.2363H110.402V27.3789H107.317V17.2363Z" fill="#BBBDBF"/>
<path d="M131.481 16.2513H134.584V27.3789H131.481V16.2513Z" fill="#BBBDBF"/>
<path d="M137.854 16.2513H140.903L147.439 23.7707V16.2513H150.357V27.3789H148.277L140.772 18.6374V27.3789H137.854V16.2513Z" fill="#BBBDBF"/>
<path d="M162.129 24.5661H155.632L154.063 27.379H151.909L158.554 16.0932H160.544L166.805 27.379H163.648L162.132 24.5661H162.129ZM161.6 23.5811L158.935 18.6059L156.18 23.5811H161.6Z" fill="#BBBDBF"/>
<path d="M129.346 27.3789L125.731 22.6355C125.789 22.6276 125.834 22.6197 125.894 22.6092C127.903 22.1851 128.907 21.1632 128.907 19.5408C128.907 18.3425 128.387 17.497 127.346 16.9992C126.306 16.5015 124.83 16.2513 122.918 16.2513H117.132V27.3789H120.217V22.8805H122.71C122.8 22.8805 122.885 22.92 122.936 22.9858L126.239 27.3763H129.346V27.3789ZM120.22 17.2363H122.942C123.865 17.2363 124.582 17.3969 125.087 17.7209C125.592 18.0449 125.843 18.6506 125.843 19.5408C125.843 20.4311 125.589 21.0737 125.087 21.4003C124.582 21.7295 123.865 21.8928 122.942 21.8928H120.22V17.2336V17.2363Z" fill="#BBBDBF"/>
</svg>
